# xmcd CD database file
#
# Track frame offsets:
#	150
#	17353
#	37305
#	56495
#	75958
#	92758
#	110588
#	127503
#	143833
#	156300
#	177065
#
# Disc length: 2596 seconds
#
# Revision: 1
# Processed by: cddbd v1.5PL3 Copyright (c) Steve Scherf et al.
# Submitted via: CDex 1.51
#
DISCID=7e0a220b
DTITLE=斉藤和義 - 青春ブルース
DYEAR=2004
DGENRE=Rock
TTITLE0=ぼくらのルール
TTITLE1=古いラジカセ
TTITLE2=アメリカ
TTITLE3=手をつなげば
TTITLE4=オリオン通り
TTITLE5=裸の王様
TTITLE6=裸の俺様
TTITLE7=愛のソリーナ
TTITLE8=悲しき街角
TTITLE9=楽園
TTITLE10=はぐれ雲
EXTD=YEAR: 2004
EXTT0=
EXTT1=
EXTT2=
EXTT3=
EXTT4=
EXTT5=
EXTT6=
EXTT7=
EXTT8=
EXTT9=
EXTT10=
PLAYORDER=
